<?xml version="1.0" encoding="utf-8"?>
<!-- Generator: Adobe Illustrator 26.5.2, SVG Export Plug-In . SVG Version: 6.00 Build 0)  -->
<svg version="1.1" id="Capa_1" xmlns="http://www.w3.org/2000/svg" xmlns:xlink="http://www.w3.org/1999/xlink" x="0px" y="0px"
	 viewBox="0 0 200 200" style="enable-background:new 0 0 200 200;" xml:space="preserve">
<g>
	<path d="M195.4,45.4L157,32.8c0,0,0,0,0,0h0c0,0-0.6-0.2-1.5-0.1c-0.9,0.1-1.5,0.5-1.5,0.5l-21.5,14.1c-1,0.6-1.6,1.7-1.6,2.9v38.5
		l-1.2-0.1V26.3c0-1.5-1-2.8-2.4-3.3L57.7,0.2c0,0-0.8-0.3-1.5-0.1c-0.9,0.1-1.5,0.6-1.5,0.6L3.7,37c-0.9,0.6-1.5,1.7-1.5,2.8v128.9
		c0,1.3,0.7,2.4,1.8,3L55,199.6c0,0,0.5,0.3,1.3,0.4c0.7,0.1,1.3-0.1,1.3-0.1l69.6-17.6l29.6-7.5l38.4-9.7c1.5-0.4,2.6-1.8,2.6-3.3
		l0-113.1C197.8,47.2,196.8,45.9,195.4,45.4z M12.6,152.4c0,0.4-0.2,0.7-0.5,0.9c-0.2,0.1-0.4,0.2-0.7,0.2c-0.1,0-0.3,0-0.4-0.1
		l-3-1.1c-0.5-0.2-0.8-0.6-0.8-1.1v-9.5c0-0.4,0.2-0.7,0.5-0.9c0.3-0.2,0.7-0.3,1-0.2l3,0.8c0.5,0.1,0.8,0.6,0.8,1.1L12.6,152.4
		L12.6,152.4L12.6,152.4z M12.6,132.9c0,0.3-0.1,0.7-0.4,0.9c-0.2,0.2-0.5,0.3-0.7,0.3c-0.1,0-0.1,0-0.2,0l-3-0.6
		c-0.5-0.1-0.9-0.6-0.9-1.1v-9.5c0-0.3,0.1-0.6,0.4-0.9c0.2-0.2,0.6-0.3,0.9-0.3l3,0.3c0.6,0.1,1,0.6,1,1.1L12.6,132.9L12.6,132.9z
		 M12.6,113.5c0,0.3-0.1,0.6-0.3,0.8c-0.2,0.2-0.5,0.3-0.8,0.3c0,0,0,0,0,0l-3,0c-0.6,0-1.1-0.5-1.1-1.2V104c0-0.6,0.5-1.1,1.1-1.1
		l3-0.2c0.3,0,0.6,0.1,0.9,0.3c0.2,0.2,0.4,0.5,0.4,0.8L12.6,113.5L12.6,113.5z M12.6,94c0,0.6-0.4,1-1,1.1l-3,0.5
		c-0.1,0-0.1,0-0.2,0c-0.3,0-0.5-0.1-0.7-0.3c-0.3-0.2-0.4-0.5-0.4-0.9V85c0-0.5,0.4-1,0.9-1.1l3-0.8c0.3-0.1,0.7,0,1,0.2
		c0.3,0.2,0.4,0.6,0.4,0.9L12.6,94L12.6,94L12.6,94z M12.6,74.5c0,0.5-0.3,0.9-0.8,1.1l-3,1.1c-0.1,0-0.3,0.1-0.4,0.1
		c-0.2,0-0.5-0.1-0.7-0.2c-0.3-0.2-0.5-0.6-0.5-0.9v-9.5c0-0.5,0.3-0.9,0.7-1.1l3-1.3c0.4-0.2,0.8-0.1,1.1,0.1
		c0.3,0.2,0.5,0.6,0.5,1C12.6,64.8,12.6,74.5,12.6,74.5z M12.6,55.1c0,0.4-0.2,0.8-0.6,1l-3,1.6c-0.2,0.1-0.4,0.1-0.5,0.1
		c-0.2,0-0.4-0.1-0.6-0.2c-0.3-0.2-0.6-0.6-0.6-1v-9.5c0-0.4,0.2-0.8,0.5-1l3-1.9c0.4-0.2,0.8-0.2,1.2,0c0.4,0.2,0.6,0.6,0.6,1
		L12.6,55.1L12.6,55.1L12.6,55.1z M22.7,156.1c0,0.4-0.2,0.7-0.5,0.9c-0.2,0.1-0.4,0.2-0.7,0.2c-0.1,0-0.3,0-0.4-0.1l-3.5-1.3
		c-0.5-0.2-0.8-0.6-0.8-1.1v-10.3c0-0.4,0.2-0.7,0.5-0.9c0.3-0.2,0.7-0.3,1-0.2l3.5,1c0.5,0.1,0.8,0.6,0.8,1.1L22.7,156.1
		L22.7,156.1L22.7,156.1z M22.7,134.8c0,0.3-0.2,0.7-0.4,0.9c-0.2,0.2-0.5,0.3-0.7,0.3c-0.1,0-0.1,0-0.2,0l-3.5-0.7
		c-0.5-0.1-0.9-0.6-0.9-1.1v-10.3c0-0.3,0.1-0.6,0.4-0.9c0.2-0.2,0.6-0.3,0.9-0.3l3.5,0.3c0.6,0.1,1,0.6,1,1.1V134.8z M22.7,113.5
		c0,0.3-0.1,0.6-0.3,0.8c-0.2,0.2-0.5,0.3-0.8,0.3c0,0,0,0,0,0l-3.5,0c-0.6,0-1.1-0.5-1.1-1.2v-10.3c0-0.6,0.5-1.1,1.1-1.1l3.5-0.3
		c0.3,0,0.6,0.1,0.9,0.3s0.4,0.5,0.4,0.8L22.7,113.5L22.7,113.5z M22.7,92.3c0,0.6-0.4,1-1,1.1L18.2,94c-0.1,0-0.1,0-0.2,0
		c-0.3,0-0.5-0.1-0.7-0.3c-0.3-0.2-0.4-0.5-0.4-0.9V82.6c0-0.5,0.4-1,0.9-1.1l3.5-0.9c0.3-0.1,0.7,0,1,0.2c0.3,0.2,0.4,0.6,0.4,0.9
		L22.7,92.3L22.7,92.3L22.7,92.3z M22.7,71c0,0.5-0.3,0.9-0.8,1.1l-3.5,1.3c-0.1,0-0.3,0.1-0.4,0.1c-0.2,0-0.5-0.1-0.7-0.2
		c-0.3-0.2-0.5-0.6-0.5-0.9V61.9c0-0.5,0.3-0.9,0.7-1.1l3.5-1.6c0.4-0.2,0.8-0.1,1.1,0.1c0.3,0.2,0.5,0.6,0.5,1V71z M22.7,49.7
		c0,0.4-0.2,0.8-0.6,1l-3.5,1.9c-0.2,0.1-0.4,0.1-0.5,0.1c-0.2,0-0.4-0.1-0.6-0.2c-0.3-0.2-0.6-0.6-0.6-1V41.3c0-0.4,0.2-0.8,0.5-1
		l3.5-2.2c0.4-0.2,0.8-0.2,1.2,0c0.4,0.2,0.6,0.6,0.6,1V49.7z M34.8,160.5c0,0.4-0.2,0.7-0.5,0.9c-0.2,0.1-0.4,0.2-0.7,0.2
		c-0.1,0-0.3,0-0.4-0.1l-4.3-1.6c-0.5-0.2-0.8-0.6-0.8-1.1v-11.3c0-0.4,0.2-0.7,0.5-0.9c0.3-0.2,0.7-0.3,1-0.2l4.3,1.2
		c0.5,0.1,0.8,0.6,0.8,1.1L34.8,160.5L34.8,160.5L34.8,160.5z M34.8,137.1c0,0.3-0.2,0.7-0.4,0.9c-0.2,0.2-0.5,0.3-0.7,0.3
		c-0.1,0-0.1,0-0.2,0l-4.3-0.8c-0.5-0.1-0.9-0.6-0.9-1.1v-11.3c0-0.3,0.1-0.6,0.4-0.9c0.2-0.2,0.6-0.3,0.9-0.3l4.3,0.4
		c0.6,0.1,1,0.6,1,1.1L34.8,137.1L34.8,137.1L34.8,137.1z M34.8,113.6c0,0.3-0.1,0.6-0.3,0.8c-0.2,0.2-0.5,0.3-0.8,0.3c0,0,0,0,0,0
		l-4.3,0c-0.6,0-1.1-0.5-1.1-1.1v-11.3c0-0.6,0.5-1.1,1.1-1.1l4.3-0.4c0.3,0,0.6,0.1,0.9,0.3c0.2,0.2,0.4,0.5,0.4,0.8L34.8,113.6
		L34.8,113.6L34.8,113.6z M34.8,90.2c0,0.6-0.4,1-1,1.1l-4.3,0.7c-0.1,0-0.1,0-0.2,0c-0.3,0-0.5-0.1-0.7-0.3
		c-0.3-0.2-0.4-0.5-0.4-0.9V79.6c0-0.5,0.3-1,0.9-1.1l4.3-1.1c0.3-0.1,0.7,0,1,0.2c0.3,0.2,0.5,0.6,0.5,0.9L34.8,90.2L34.8,90.2
		L34.8,90.2z M34.8,66.7c0,0.5-0.3,0.9-0.8,1.1l-4.3,1.5c-0.1,0-0.3,0.1-0.4,0.1c-0.2,0-0.5-0.1-0.7-0.2c-0.3-0.2-0.5-0.6-0.5-0.9
		V56.9c0-0.5,0.3-0.9,0.7-1.1l4.3-1.9c0.4-0.2,0.8-0.1,1.1,0.1c0.3,0.2,0.5,0.6,0.5,1V66.7L34.8,66.7z M34.8,43.3
		c0,0.4-0.2,0.8-0.6,1l-4.3,2.3c-0.2,0.1-0.4,0.1-0.5,0.1c-0.2,0-0.4-0.1-0.6-0.2c-0.3-0.2-0.6-0.6-0.6-1V34.3c0-0.4,0.2-0.8,0.5-1
		l4.3-2.7c0.4-0.2,0.8-0.2,1.2,0c0.4,0.2,0.6,0.6,0.6,1L34.8,43.3L34.8,43.3z M49.6,166c0,0.4-0.2,0.7-0.5,0.9
		c-0.2,0.1-0.4,0.2-0.7,0.2c-0.1,0-0.3,0-0.4-0.1l-5.3-2c-0.5-0.2-0.8-0.6-0.8-1.1v-12.6c0-0.4,0.2-0.7,0.5-0.9
		c0.3-0.2,0.7-0.3,1-0.2l5.3,1.5c0.5,0.1,0.8,0.6,0.8,1.1L49.6,166L49.6,166L49.6,166z M49.6,139.8c0,0.3-0.2,0.7-0.4,0.9
		c-0.2,0.2-0.5,0.3-0.7,0.3c-0.1,0-0.1,0-0.2,0l-5.3-1c-0.5-0.1-0.9-0.6-0.9-1.1v-12.6c0-0.3,0.1-0.6,0.4-0.9
		c0.2-0.2,0.6-0.3,0.9-0.3l5.3,0.5c0.6,0.1,1,0.6,1,1.1L49.6,139.8L49.6,139.8L49.6,139.8z M49.6,113.7c0,0.3-0.1,0.6-0.3,0.8
		c-0.2,0.2-0.5,0.3-0.8,0.3c0,0,0,0,0,0l-5.3,0c-0.6,0-1.1-0.5-1.1-1.1v-12.6c0-0.6,0.5-1.1,1.1-1.1l5.3-0.4c0.3,0,0.6,0.1,0.9,0.3
		c0.2,0.2,0.4,0.5,0.4,0.8L49.6,113.7L49.6,113.7z M49.6,87.6c0,0.6-0.4,1-1,1.1l-5.3,0.9c-0.1,0-0.1,0-0.2,0
		c-0.3,0-0.5-0.1-0.7-0.3c-0.3-0.2-0.4-0.5-0.4-0.9V76c0-0.5,0.3-1,0.9-1.1l5.3-1.4c0.3-0.1,0.7,0,1,0.2c0.3,0.2,0.5,0.6,0.5,0.9
		L49.6,87.6L49.6,87.6L49.6,87.6z M49.6,61.5c0,0.5-0.3,0.9-0.8,1.1l-5.3,1.9c-0.1,0-0.3,0.1-0.4,0.1c-0.2,0-0.5-0.1-0.7-0.2
		c-0.3-0.2-0.5-0.6-0.5-0.9V50.8c0-0.5,0.3-0.9,0.7-1.1l5.3-2.4c0.4-0.2,0.8-0.1,1.1,0.1c0.3,0.2,0.5,0.6,0.5,1V61.5z M49.6,35.4
		c0,0.4-0.2,0.8-0.6,1l-5.3,2.8c-0.2,0.1-0.4,0.1-0.5,0.1c-0.2,0-0.4-0.1-0.6-0.2c-0.3-0.2-0.6-0.6-0.6-1V25.6c0-0.4,0.2-0.8,0.5-1
		l5.3-3.3c0.4-0.2,0.8-0.2,1.2,0c0.4,0.2,0.6,0.6,0.6,1L49.6,35.4L49.6,35.4L49.6,35.4z M77.8,165.6c0,0.6-0.4,1-1,1.1l-12.3,2.1
		c-0.1,0-0.1,0-0.2,0c-0.3,0-0.5-0.1-0.7-0.3c-0.3-0.2-0.4-0.5-0.4-0.9v-13.5c0-0.6,0.4-1.1,1-1.1l12.3-1.6c0.3,0,0.7,0.1,0.9,0.3
		c0.3,0.2,0.4,0.5,0.4,0.9L77.8,165.6L77.8,165.6L77.8,165.6z M77.8,139.6c0,0.6-0.5,1.1-1.1,1.1l-12.3,1.1c0,0-0.1,0-0.1,0
		c-0.3,0-0.6-0.1-0.8-0.3c-0.2-0.2-0.4-0.5-0.4-0.8v-13.4c0-0.6,0.5-1.1,1.1-1.1l12.3-0.6c0.3,0,0.6,0.1,0.8,0.3
		c0.2,0.2,0.4,0.5,0.4,0.8L77.8,139.6L77.8,139.6L77.8,139.6z M77.8,113.7c0,0.6-0.5,1.1-1.1,1.2l-12.3,0c0,0,0,0,0,0
		c-0.3,0-0.6-0.1-0.8-0.3c-0.2-0.2-0.3-0.5-0.3-0.8v-13.5c0-0.3,0.1-0.6,0.4-0.8c0.2-0.2,0.5-0.3,0.8-0.3l12.3,0.5
		c0.6,0,1.1,0.5,1.1,1.1L77.8,113.7L77.8,113.7z M77.8,87.8c0,0.3-0.1,0.6-0.4,0.8c-0.2,0.2-0.5,0.3-0.8,0.3c0,0-0.1,0-0.1,0
		l-12.3-1c-0.6,0-1.1-0.5-1.1-1.1V73.4c0-0.3,0.1-0.6,0.4-0.9c0.2-0.2,0.6-0.3,0.9-0.3l12.3,1.5c0.6,0.1,1,0.6,1,1.1L77.8,87.8
		L77.8,87.8z M77.8,61.9c0,0.3-0.1,0.7-0.4,0.9c-0.2,0.2-0.5,0.3-0.7,0.3c-0.1,0-0.1,0-0.2,0l-12.3-2c-0.6-0.1-1-0.6-1-1.1V46.4
		c0-0.3,0.2-0.7,0.4-0.9c0.3-0.2,0.6-0.3,1-0.2l12.3,2.5c0.5,0.1,0.9,0.6,0.9,1.1V61.9z M77.8,36c0,0.4-0.2,0.7-0.4,0.9
		c-0.2,0.2-0.5,0.2-0.7,0.2c-0.1,0-0.2,0-0.3,0l-12.3-3c-0.5-0.1-0.9-0.6-0.9-1.1V19.5c0-0.4,0.2-0.7,0.5-0.9c0.3-0.2,0.7-0.3,1-0.2
		L77,21.9c0.5,0.1,0.8,0.6,0.8,1.1L77.8,36L77.8,36z M99.7,161.9c0,0.6-0.4,1-1,1.1l-10.6,1.8c-0.1,0-0.1,0-0.2,0
		c-0.3,0-0.5-0.1-0.7-0.3c-0.3-0.2-0.4-0.5-0.4-0.9v-12.5c0-0.6,0.4-1.1,1-1.1l10.6-1.4c0.3,0,0.7,0.1,0.9,0.3
		c0.2,0.2,0.4,0.5,0.4,0.9L99.7,161.9L99.7,161.9L99.7,161.9z M99.7,137.8c0,0.6-0.5,1.1-1.1,1.1l-10.6,0.9c0,0-0.1,0-0.1,0
		c-0.3,0-0.6-0.1-0.8-0.3c-0.2-0.2-0.4-0.5-0.4-0.8v-12.5c0-0.6,0.5-1.1,1.1-1.2l10.6-0.5c0.3,0,0.6,0.1,0.8,0.3
		c0.2,0.2,0.4,0.5,0.4,0.8L99.7,137.8L99.7,137.8z M99.7,113.6c0,0.6-0.5,1.1-1.1,1.2l-10.6,0h0c-0.3,0-0.6-0.1-0.8-0.3
		c-0.2-0.2-0.3-0.5-0.3-0.8v-12.5c0-0.3,0.1-0.6,0.4-0.8c0.2-0.2,0.5-0.3,0.8-0.3l10.6,0.4c0.6,0,1.1,0.5,1.1,1.2L99.7,113.6
		L99.7,113.6L99.7,113.6z M99.7,89.5c0,0.3-0.1,0.6-0.4,0.8c-0.2,0.2-0.5,0.3-0.8,0.3c0,0-0.1,0-0.1,0l-10.6-0.8
		c-0.6,0-1.1-0.5-1.1-1.1V76.2c0-0.3,0.1-0.6,0.4-0.9c0.2-0.2,0.6-0.3,0.9-0.3l10.6,1.3c0.6,0.1,1,0.6,1,1.1L99.7,89.5L99.7,89.5
		L99.7,89.5z M99.7,65.4c0,0.3-0.1,0.7-0.4,0.9c-0.2,0.2-0.5,0.3-0.7,0.3c-0.1,0-0.1,0-0.2,0l-10.6-1.7c-0.6-0.1-1-0.6-1-1.1V51.2
		c0-0.3,0.2-0.7,0.4-0.9c0.3-0.2,0.6-0.3,1-0.2l10.6,2.2c0.5,0.1,0.9,0.6,0.9,1.1L99.7,65.4L99.7,65.4z M99.7,41.3
		c0,0.4-0.2,0.7-0.4,0.9c-0.2,0.2-0.5,0.2-0.7,0.2c-0.1,0-0.2,0-0.3,0l-10.6-2.6c-0.5-0.1-0.9-0.6-0.9-1.1V26.2
		c0-0.4,0.2-0.7,0.5-0.9c0.3-0.2,0.7-0.3,1-0.2l10.6,3c0.5,0.1,0.8,0.6,0.8,1.1L99.7,41.3L99.7,41.3z M118.8,158.6
		c0,0.6-0.4,1-1,1.1l-9.2,1.6c-0.1,0-0.1,0-0.2,0c-0.3,0-0.5-0.1-0.7-0.3c-0.3-0.2-0.4-0.5-0.4-0.9v-11.6c0-0.6,0.4-1.1,1-1.1
		l9.2-1.2c0.3,0,0.7,0.1,0.9,0.3c0.3,0.2,0.4,0.5,0.4,0.9L118.8,158.6L118.8,158.6L118.8,158.6z M118.8,136.1c0,0.6-0.5,1.1-1.1,1.1
		l-9.2,0.8c0,0-0.1,0-0.1,0c-0.3,0-0.6-0.1-0.8-0.3c-0.2-0.2-0.4-0.5-0.4-0.8v-11.6c0-0.6,0.5-1.1,1.1-1.1l9.2-0.4
		c0.3,0,0.6,0.1,0.8,0.3c0.2,0.2,0.4,0.5,0.4,0.8L118.8,136.1L118.8,136.1z M118.8,113.6c0,0.6-0.5,1.1-1.1,1.2l-9.2,0c0,0,0,0,0,0
		c-0.3,0-0.6-0.1-0.8-0.3c-0.2-0.2-0.3-0.5-0.3-0.8V102c0-0.3,0.1-0.6,0.4-0.8c0.2-0.2,0.5-0.3,0.8-0.3l9.2,0.3
		c0.6,0,1.1,0.5,1.1,1.1V113.6z M118.8,91.1c0,0.3-0.1,0.6-0.4,0.8c-0.2,0.2-0.5,0.3-0.8,0.3c0,0-0.1,0-0.1,0l-9.2-0.7
		c-0.6-0.1-1.1-0.5-1.1-1.1V78.7c0-0.3,0.1-0.6,0.4-0.9c0.2-0.2,0.6-0.3,0.9-0.3l9.2,1.1c0.6,0.1,1,0.6,1,1.1V91.1z M118.8,68.5
		c0,0.3-0.1,0.7-0.4,0.9c-0.2,0.2-0.5,0.3-0.7,0.3c-0.1,0-0.1,0-0.2,0l-9.2-1.5c-0.6-0.1-1-0.6-1-1.1V55.4c0-0.3,0.2-0.7,0.4-0.9
		c0.3-0.2,0.6-0.3,1-0.2l9.2,1.9c0.5,0.1,0.9,0.6,0.9,1.1L118.8,68.5L118.8,68.5z M118.8,46c0,0.4-0.2,0.7-0.4,0.9
		c-0.2,0.2-0.5,0.2-0.7,0.2c-0.1,0-0.2,0-0.3,0l-9.2-2.3c-0.5-0.1-0.9-0.6-0.9-1.1V32.1c0-0.4,0.2-0.7,0.5-0.9
		c0.3-0.2,0.7-0.3,1-0.2l9.2,2.6c0.5,0.1,0.8,0.6,0.8,1.1L118.8,46L118.8,46z M157,171.5c0,0.5-0.4,1-0.9,1.1l-29.6,7.5
		c-0.1,0-0.2,0-0.3,0c-0.3,0-0.5-0.1-0.7-0.2c-0.3-0.2-0.4-0.6-0.4-0.9v-65.4c0-0.1,0.2-12.1,16.9-11.4c14.9,0.6,15,11.2,15,11.3
		L157,171.5L157,171.5z M169.5,150c0,0.6-0.4,1-1,1.1l-6,1c-0.1,0-0.1,0-0.2,0c-0.3,0-0.5-0.1-0.7-0.3c-0.3-0.2-0.4-0.5-0.4-0.9
		v-9.4c0-0.6,0.4-1.1,1-1.1l6.1-0.8c0.3,0,0.7,0.1,0.9,0.3c0.2,0.2,0.4,0.5,0.4,0.9L169.5,150L169.5,150z M169.5,131.7
		c0,0.6-0.5,1.1-1.1,1.1l-6.1,0.5c0,0-0.1,0-0.1,0c-0.3,0-0.6-0.1-0.8-0.3c-0.2-0.2-0.4-0.5-0.4-0.8v-9.4c0-0.6,0.5-1.1,1.1-1.1
		l6.1-0.3c0.3,0,0.6,0.1,0.8,0.3c0.2,0.2,0.4,0.5,0.4,0.8L169.5,131.7L169.5,131.7z M169.5,113.3c0,0.6-0.5,1.1-1.1,1.1l-6.1,0
		c0,0,0,0,0,0c-0.3,0-0.6-0.1-0.8-0.3c-0.2-0.2-0.3-0.5-0.3-0.8V104c0-0.3,0.1-0.6,0.3-0.8c0.2-0.2,0.5-0.3,0.8-0.3l6,0.2
		c0.6,0,1.1,0.5,1.1,1.1L169.5,113.3L169.5,113.3z M169.5,95.1c0,0.3-0.1,0.6-0.4,0.8c-0.2,0.2-0.5,0.3-0.8,0.3c0,0-0.1,0-0.1,0
		l-6.1-0.5c-0.6,0-1.1-0.5-1.1-1.1v-9.4c0-0.3,0.1-0.6,0.4-0.9c0.2-0.2,0.6-0.3,0.9-0.3l6.1,0.7c0.6,0.1,1,0.6,1,1.1V95.1
		L169.5,95.1z M169.5,76.8c0,0.3-0.1,0.7-0.4,0.9c-0.2,0.2-0.5,0.3-0.7,0.3c-0.1,0-0.1,0-0.2,0l-6.1-1c-0.6-0.1-1-0.6-1-1.1v-9.4
		c0-0.3,0.2-0.7,0.4-0.9c0.3-0.2,0.6-0.3,1-0.2l6,1.2c0.5,0.1,0.9,0.6,0.9,1.1L169.5,76.8L169.5,76.8z M169.5,58.5
		c0,0.4-0.2,0.7-0.4,0.9c-0.2,0.2-0.5,0.2-0.7,0.2c-0.1,0-0.2,0-0.3,0l-6.1-1.5c-0.5-0.1-0.9-0.6-0.9-1.1v-9.4
		c0-0.4,0.2-0.7,0.5-0.9c0.3-0.2,0.7-0.3,1-0.2l6,1.7c0.5,0.1,0.8,0.6,0.8,1.1L169.5,58.5L169.5,58.5z M180.7,148.1
		c0,0.6-0.4,1-1,1.1l-5.4,0.9c-0.1,0-0.1,0-0.2,0c-0.3,0-0.5-0.1-0.7-0.3c-0.3-0.2-0.4-0.5-0.4-0.9v-8.9c0-0.6,0.4-1.1,1-1.1
		l5.4-0.7c0.3,0,0.7,0.1,0.9,0.3c0.3,0.2,0.4,0.5,0.4,0.9L180.7,148.1L180.7,148.1L180.7,148.1z M180.7,130.8c0,0.6-0.5,1.1-1.1,1.1
		l-5.4,0.5c0,0-0.1,0-0.1,0c-0.3,0-0.6-0.1-0.8-0.3c-0.2-0.2-0.4-0.5-0.4-0.8v-8.9c0-0.6,0.5-1.1,1.1-1.1l5.4-0.2
		c0.3,0,0.6,0.1,0.8,0.3c0.2,0.2,0.4,0.5,0.4,0.8L180.7,130.8L180.7,130.8z M180.7,113.4c0,0.6-0.5,1.1-1.1,1.1l-5.4,0h0
		c-0.3,0-0.6-0.1-0.8-0.3c-0.2-0.2-0.3-0.5-0.3-0.8v-8.9c0-0.3,0.1-0.6,0.4-0.8c0.2-0.2,0.5-0.3,0.8-0.3l5.4,0.2
		c0.6,0,1.1,0.5,1.1,1.1L180.7,113.4L180.7,113.4z M180.7,96c0,0.3-0.1,0.6-0.4,0.8c-0.2,0.2-0.5,0.3-0.8,0.3c0,0-0.1,0-0.1,0
		l-5.4-0.4c-0.6-0.1-1.1-0.5-1.1-1.1v-8.9c0-0.3,0.1-0.6,0.4-0.9c0.2-0.2,0.6-0.3,0.9-0.3l5.4,0.7c0.6,0.1,1,0.6,1,1.1L180.7,96
		L180.7,96z M180.7,78.6c0,0.3-0.1,0.7-0.4,0.9c-0.2,0.2-0.5,0.3-0.7,0.3c-0.1,0-0.1,0-0.2,0l-5.4-0.9c-0.6-0.1-1-0.6-1-1.1v-8.9
		c0-0.3,0.2-0.7,0.4-0.9c0.3-0.2,0.6-0.3,1-0.2l5.4,1.1c0.5,0.1,0.9,0.6,0.9,1.1L180.7,78.6L180.7,78.6z M180.7,61.2
		c0,0.4-0.2,0.7-0.4,0.9c-0.2,0.2-0.5,0.2-0.7,0.2c-0.1,0-0.2,0-0.3,0l-5.4-1.3c-0.5-0.1-0.9-0.6-0.9-1.1v-8.9
		c0-0.4,0.2-0.7,0.5-0.9c0.3-0.2,0.7-0.3,1-0.2l5.4,1.6c0.5,0.1,0.8,0.6,0.8,1.1L180.7,61.2L180.7,61.2L180.7,61.2z M190.8,146.4
		c0,0.6-0.4,1-1,1.1l-4.9,0.8c-0.1,0-0.1,0-0.2,0c-0.3,0-0.5-0.1-0.7-0.3c-0.3-0.2-0.4-0.5-0.4-0.9v-8.5c0-0.6,0.4-1.1,1-1.1
		l4.9-0.6c0.3,0,0.7,0.1,0.9,0.3c0.3,0.2,0.4,0.5,0.4,0.9L190.8,146.4L190.8,146.4L190.8,146.4z M190.8,129.9c0,0.6-0.5,1.1-1.1,1.1
		l-4.9,0.4c0,0-0.1,0-0.1,0c-0.3,0-0.6-0.1-0.8-0.3c-0.2-0.2-0.4-0.5-0.4-0.8v-8.5c0-0.6,0.5-1.1,1.1-1.1l4.9-0.2
		c0.3,0,0.6,0.1,0.8,0.3c0.2,0.2,0.4,0.5,0.4,0.8V129.9z M190.8,113.3c0,0.6-0.5,1.1-1.1,1.2l-4.9,0c0,0,0,0,0,0
		c-0.3,0-0.6-0.1-0.8-0.3c-0.2-0.2-0.3-0.5-0.3-0.8v-8.5c0-0.3,0.1-0.6,0.4-0.8c0.2-0.2,0.5-0.3,0.8-0.3l4.9,0.2
		c0.6,0,1.1,0.5,1.1,1.2V113.3L190.8,113.3z M190.8,96.8c0,0.3-0.1,0.6-0.4,0.8c-0.2,0.2-0.5,0.3-0.8,0.3c0,0-0.1,0-0.1,0l-4.9-0.4
		c-0.6-0.1-1.1-0.5-1.1-1.1v-8.5c0-0.3,0.1-0.6,0.4-0.9c0.2-0.2,0.6-0.3,0.9-0.3l4.9,0.6c0.6,0.1,1,0.6,1,1.1L190.8,96.8L190.8,96.8
		z M190.8,80.2c0,0.3-0.1,0.7-0.4,0.9c-0.2,0.2-0.5,0.3-0.7,0.3c-0.1,0-0.1,0-0.2,0l-4.9-0.8c-0.6-0.1-1-0.6-1-1.1v-8.5
		c0-0.3,0.2-0.7,0.4-0.9c0.3-0.2,0.6-0.3,1-0.2l4.9,1c0.5,0.1,0.9,0.6,0.9,1.1L190.8,80.2L190.8,80.2L190.8,80.2z M190.8,63.7
		c0,0.4-0.2,0.7-0.4,0.9c-0.2,0.2-0.5,0.2-0.7,0.2c-0.1,0-0.2,0-0.3,0l-4.9-1.2c-0.5-0.1-0.9-0.6-0.9-1.1V54c0-0.4,0.2-0.7,0.5-0.9
		c0.3-0.2,0.7-0.3,1-0.2l4.9,1.4c0.5,0.1,0.8,0.6,0.8,1.1L190.8,63.7L190.8,63.7L190.8,63.7z"/>
</g>
</svg>
